<svg xmlns="http://www.w3.org/2000/svg" xmlns:xlink="http://www.w3.org/1999/xlink" width="500" zoomAndPan="magnify" viewBox="0 0 375 149.999998" height="200" preserveAspectRatio="xMidYMid meet" version="1.0"><defs><g/></defs><g fill="#0d4186" fill-opacity="1"><g transform="translate(0.0656235, 73.285321)"><g><path d="M 14.953125 -30.5 C 16.804688 -30.5 18.457031 -30.222656 19.90625 -29.671875 C 21.351562 -29.128906 22.722656 -28.316406 24.015625 -27.234375 L 20.65625 -23.234375 C 19.769531 -23.921875 18.894531 -24.4375 18.03125 -24.78125 C 17.175781 -25.125 16.265625 -25.296875 15.296875 -25.296875 C 13.285156 -25.296875 11.703125 -24.453125 10.546875 -22.765625 C 9.390625 -21.078125 8.8125 -18.472656 8.8125 -14.953125 C 8.8125 -11.484375 9.390625 -8.910156 10.546875 -7.234375 C 11.703125 -5.554688 13.3125 -4.71875 15.375 -4.71875 C 16.46875 -4.71875 17.457031 -4.925781 18.34375 -5.34375 C 19.226562 -5.757812 20.1875 -6.351562 21.21875 -7.125 L 24.359375 -3.09375 C 23.234375 -1.976562 21.875 -1.0625 20.28125 -0.34375 C 18.695312 0.375 16.945312 0.734375 15.03125 0.734375 C 12.28125 0.734375 9.890625 0.132812 7.859375 -1.0625 C 5.828125 -2.269531 4.242188 -4.054688 3.109375 -6.421875 C 1.984375 -8.785156 1.421875 -11.628906 1.421875 -14.953125 C 1.421875 -18.179688 2 -20.96875 3.15625 -23.3125 C 4.3125 -25.664062 5.910156 -27.453125 7.953125 -28.671875 C 10.003906 -29.890625 12.335938 -30.5 14.953125 -30.5 Z M 14.953125 -30.5 "/></g></g></g><g fill="#0d4186" fill-opacity="1"><g transform="translate(24.761377, 73.285321)"><g><path d="M 16.015625 -23.53125 C 17.992188 -23.53125 19.539062 -22.929688 20.65625 -21.734375 C 21.769531 -20.535156 22.328125 -18.847656 22.328125 -16.671875 L 22.328125 0 L 15.546875 0 L 15.546875 -15.5 C 15.546875 -16.644531 15.359375 -17.441406 14.984375 -17.890625 C 14.617188 -18.335938 14.09375 -18.5625 13.40625 -18.5625 C 12.03125 -18.5625 10.710938 -17.585938 9.453125 -15.640625 L 9.453125 0 L 2.65625 0 L 2.65625 -31.875 L 9.453125 -32.5625 L 9.453125 -20.359375 C 10.390625 -21.421875 11.390625 -22.210938 12.453125 -22.734375 C 13.515625 -23.265625 14.703125 -23.53125 16.015625 -23.53125 Z M 16.015625 -23.53125 "/></g></g></g><g fill="#0d4186" fill-opacity="1"><g transform="translate(49.54303, 73.285321)"><g><path d="M 15.03125 -23.453125 C 15.863281 -23.453125 16.625 -23.351562 17.3125 -23.15625 L 16.234375 -16.578125 C 15.378906 -16.773438 14.691406 -16.875 14.171875 -16.875 C 12.828125 -16.875 11.800781 -16.410156 11.09375 -15.484375 C 10.394531 -14.554688 9.847656 -13.160156 9.453125 -11.296875 L 9.453125 0 L 2.65625 0 L 2.65625 -22.8125 L 8.59375 -22.8125 L 9.15625 -18.390625 C 9.664062 -19.960938 10.441406 -21.195312 11.484375 -22.09375 C 12.535156 -23 13.71875 -23.453125 15.03125 -23.453125 Z M 15.03125 -23.453125 "/></g></g></g><g fill="#0d4186" fill-opacity="1"><g transform="translate(66.765631, 73.285321)"><g><path d="M 9.453125 -22.8125 L 9.453125 0 L 2.65625 0 L 2.65625 -22.8125 Z M 6.015625 -34.828125 C 7.191406 -34.828125 8.160156 -34.460938 8.921875 -33.734375 C 9.679688 -33.003906 10.0625 -32.082031 10.0625 -30.96875 C 10.0625 -29.851562 9.679688 -28.929688 8.921875 -28.203125 C 8.160156 -27.472656 7.191406 -27.109375 6.015625 -27.109375 C 4.835938 -27.109375 3.875 -27.472656 3.125 -28.203125 C 2.382812 -28.929688 2.015625 -29.851562 2.015625 -30.96875 C 2.015625 -32.082031 2.382812 -33.003906 3.125 -33.734375 C 3.875 -34.460938 4.835938 -34.828125 6.015625 -34.828125 Z M 6.015625 -34.828125 "/></g></g></g><g fill="#0d4186" fill-opacity="1"><g transform="translate(78.877291, 73.285321)"><g><path d="M 10.6875 -23.53125 C 12.320312 -23.53125 13.851562 -23.285156 15.28125 -22.796875 C 16.71875 -22.316406 17.984375 -21.632812 19.078125 -20.75 L 16.578125 -16.921875 C 14.710938 -18.097656 12.835938 -18.6875 10.953125 -18.6875 C 10.066406 -18.6875 9.382812 -18.535156 8.90625 -18.234375 C 8.4375 -17.929688 8.203125 -17.507812 8.203125 -16.96875 C 8.203125 -16.539062 8.304688 -16.1875 8.515625 -15.90625 C 8.734375 -15.632812 9.171875 -15.351562 9.828125 -15.0625 C 10.492188 -14.78125 11.515625 -14.441406 12.890625 -14.046875 C 15.265625 -13.359375 17.03125 -12.460938 18.1875 -11.359375 C 19.351562 -10.253906 19.9375 -8.726562 19.9375 -6.78125 C 19.9375 -5.238281 19.488281 -3.898438 18.59375 -2.765625 C 17.707031 -1.640625 16.488281 -0.773438 14.9375 -0.171875 C 13.394531 0.429688 11.679688 0.734375 9.796875 0.734375 C 7.878906 0.734375 6.09375 0.429688 4.4375 -0.171875 C 2.789062 -0.773438 1.394531 -1.601562 0.25 -2.65625 L 3.5625 -6.359375 C 5.476562 -4.867188 7.5 -4.125 9.625 -4.125 C 10.65625 -4.125 11.460938 -4.304688 12.046875 -4.671875 C 12.628906 -5.046875 12.921875 -5.578125 12.921875 -6.265625 C 12.921875 -6.816406 12.804688 -7.25 12.578125 -7.5625 C 12.347656 -7.875 11.90625 -8.164062 11.25 -8.4375 C 10.59375 -8.707031 9.550781 -9.046875 8.125 -9.453125 C 5.851562 -10.109375 4.160156 -11.019531 3.046875 -12.1875 C 1.929688 -13.363281 1.375 -14.828125 1.375 -16.578125 C 1.375 -17.898438 1.753906 -19.082031 2.515625 -20.125 C 3.273438 -21.164062 4.363281 -21.992188 5.78125 -22.609375 C 7.195312 -23.222656 8.832031 -23.53125 10.6875 -23.53125 Z M 10.6875 -23.53125 "/></g></g></g><g fill="#0d4186" fill-opacity="1"><g transform="translate(99.62172, 73.285321)"><g><path d="M 16.96875 -1.078125 C 16.132812 -0.503906 15.164062 -0.0625 14.0625 0.25 C 12.957031 0.570312 11.863281 0.734375 10.78125 0.734375 C 5.800781 0.703125 3.3125 -2.046875 3.3125 -7.515625 L 3.3125 -18.078125 L 0.078125 -18.078125 L 0.078125 -22.8125 L 3.3125 -22.8125 L 3.3125 -27.75 L 10.09375 -28.515625 L 10.09375 -22.8125 L 15.328125 -22.8125 L 14.609375 -18.078125 L 10.09375 -18.078125 L 10.09375 -7.609375 C 10.09375 -6.546875 10.265625 -5.785156 10.609375 -5.328125 C 10.953125 -4.867188 11.492188 -4.640625 12.234375 -4.640625 C 13.015625 -4.640625 13.832031 -4.882812 14.6875 -5.375 Z M 16.96875 -1.078125 "/></g></g></g><g fill="#0d4186" fill-opacity="1"><g transform="translate(116.200088, 73.285321)"><g><path d="M 9.453125 -22.8125 L 9.453125 0 L 2.65625 0 L 2.65625 -22.8125 Z M 6.015625 -34.828125 C 7.191406 -34.828125 8.160156 -34.460938 8.921875 -33.734375 C 9.679688 -33.003906 10.0625 -32.082031 10.0625 -30.96875 C 10.0625 -29.851562 9.679688 -28.929688 8.921875 -28.203125 C 8.160156 -27.472656 7.191406 -27.109375 6.015625 -27.109375 C 4.835938 -27.109375 3.875 -27.472656 3.125 -28.203125 C 2.382812 -28.929688 2.015625 -29.851562 2.015625 -30.96875 C 2.015625 -32.082031 2.382812 -33.003906 3.125 -33.734375 C 3.875 -34.460938 4.835938 -34.828125 6.015625 -34.828125 Z M 6.015625 -34.828125 "/></g></g></g><g fill="#0d4186" fill-opacity="1"><g transform="translate(128.311748, 73.285321)"><g><path d="M 20.796875 -6.609375 C 20.796875 -5.753906 20.914062 -5.125 21.15625 -4.71875 C 21.394531 -4.320312 21.785156 -4.023438 22.328125 -3.828125 L 20.921875 0.59375 C 19.515625 0.476562 18.367188 0.171875 17.484375 -0.328125 C 16.597656 -0.828125 15.910156 -1.617188 15.421875 -2.703125 C 13.929688 -0.410156 11.640625 0.734375 8.546875 0.734375 C 6.285156 0.734375 4.476562 0.078125 3.125 -1.234375 C 1.78125 -2.554688 1.109375 -4.28125 1.109375 -6.40625 C 1.109375 -8.894531 2.023438 -10.796875 3.859375 -12.109375 C 5.691406 -13.429688 8.34375 -14.09375 11.8125 -14.09375 L 14.125 -14.09375 L 14.125 -15.078125 C 14.125 -16.421875 13.835938 -17.34375 13.265625 -17.84375 C 12.691406 -18.34375 11.691406 -18.59375 10.265625 -18.59375 C 9.523438 -18.59375 8.625 -18.484375 7.5625 -18.265625 C 6.5 -18.054688 5.410156 -17.765625 4.296875 -17.390625 L 2.75 -21.859375 C 4.175781 -22.398438 5.640625 -22.8125 7.140625 -23.09375 C 8.648438 -23.382812 10.050781 -23.53125 11.34375 -23.53125 C 14.601562 -23.53125 16.992188 -22.859375 18.515625 -21.515625 C 20.035156 -20.171875 20.796875 -18.15625 20.796875 -15.46875 Z M 10.53125 -4.125 C 12.070312 -4.125 13.269531 -4.851562 14.125 -6.3125 L 14.125 -10.359375 L 12.453125 -10.359375 C 10.910156 -10.359375 9.757812 -10.082031 9 -9.53125 C 8.238281 -8.988281 7.859375 -8.144531 7.859375 -7 C 7.859375 -6.082031 8.09375 -5.375 8.5625 -4.875 C 9.039062 -4.375 9.695312 -4.125 10.53125 -4.125 Z M 10.53125 -4.125 "/></g></g></g><g fill="#0d4186" fill-opacity="1"><g transform="translate(151.847871, 73.285321)"><g><path d="M 16.015625 -23.53125 C 17.992188 -23.53125 19.539062 -22.929688 20.65625 -21.734375 C 21.769531 -20.535156 22.328125 -18.847656 22.328125 -16.671875 L 22.328125 0 L 15.546875 0 L 15.546875 -15.5 C 15.546875 -16.644531 15.363281 -17.441406 15 -17.890625 C 14.644531 -18.335938 14.113281 -18.5625 13.40625 -18.5625 C 12.03125 -18.5625 10.710938 -17.570312 9.453125 -15.59375 L 9.453125 0 L 2.65625 0 L 2.65625 -22.8125 L 8.59375 -22.8125 L 9.0625 -20.109375 C 10.039062 -21.242188 11.09375 -22.097656 12.21875 -22.671875 C 13.351562 -23.242188 14.617188 -23.53125 16.015625 -23.53125 Z M 16.015625 -23.53125 "/></g></g></g><g fill="#0d4186" fill-opacity="1"><g transform="translate(176.629524, 73.285321)"><g/></g></g><g fill="#0d4186" fill-opacity="1"><g transform="translate(186.808471, 73.285321)"><g><path d="M 32.34375 0 L 25.421875 0 L 24.90625 -11.640625 C 24.769531 -14.421875 24.703125 -16.898438 24.703125 -19.078125 C 24.703125 -20.734375 24.742188 -22.304688 24.828125 -23.796875 L 20.234375 -3.140625 L 13.578125 -3.140625 L 8.671875 -23.796875 C 8.847656 -21.304688 8.9375 -18.957031 8.9375 -16.75 C 8.9375 -15.09375 8.894531 -13.359375 8.8125 -11.546875 L 8.296875 0 L 1.421875 0 L 3.65625 -29.765625 L 12.546875 -29.765625 L 17.015625 -9.578125 L 21.171875 -29.765625 L 30.109375 -29.765625 Z M 32.34375 0 "/></g></g></g><g fill="#0d4186" fill-opacity="1"><g transform="translate(220.56648, 73.285321)"><g><path d="M 9.453125 -22.8125 L 9.453125 0 L 2.65625 0 L 2.65625 -22.8125 Z M 6.015625 -34.828125 C 7.191406 -34.828125 8.160156 -34.460938 8.921875 -33.734375 C 9.679688 -33.003906 10.0625 -32.082031 10.0625 -30.96875 C 10.0625 -29.851562 9.679688 -28.929688 8.921875 -28.203125 C 8.160156 -27.472656 7.191406 -27.109375 6.015625 -27.109375 C 4.835938 -27.109375 3.875 -27.472656 3.125 -28.203125 C 2.382812 -28.929688 2.015625 -29.851562 2.015625 -30.96875 C 2.015625 -32.082031 2.382812 -33.003906 3.125 -33.734375 C 3.875 -34.460938 4.835938 -34.828125 6.015625 -34.828125 Z M 6.015625 -34.828125 "/></g></g></g><g fill="#0d4186" fill-opacity="1"><g transform="translate(232.678128, 73.285321)"><g><path d="M 12.546875 -23.53125 C 14.117188 -23.53125 15.535156 -23.300781 16.796875 -22.84375 C 18.054688 -22.382812 19.242188 -21.6875 20.359375 -20.75 L 17.4375 -16.703125 C 16.007812 -17.796875 14.5625 -18.34375 13.09375 -18.34375 C 11.582031 -18.34375 10.4375 -17.78125 9.65625 -16.65625 C 8.882812 -15.539062 8.5 -13.738281 8.5 -11.25 C 8.5 -8.84375 8.882812 -7.140625 9.65625 -6.140625 C 10.4375 -5.140625 11.554688 -4.640625 13.015625 -4.640625 C 13.785156 -4.640625 14.484375 -4.757812 15.109375 -5 C 15.742188 -5.25 16.503906 -5.644531 17.390625 -6.1875 L 20.359375 -1.96875 C 18.097656 -0.164062 15.535156 0.734375 12.671875 0.734375 C 10.347656 0.734375 8.34375 0.238281 6.65625 -0.75 C 4.96875 -1.738281 3.664062 -3.128906 2.75 -4.921875 C 1.832031 -6.710938 1.375 -8.804688 1.375 -11.203125 C 1.375 -13.609375 1.832031 -15.742188 2.75 -17.609375 C 3.664062 -19.472656 4.96875 -20.925781 6.65625 -21.96875 C 8.34375 -23.007812 10.304688 -23.53125 12.546875 -23.53125 Z M 12.546875 -23.53125 "/></g></g></g><g fill="#0d4186" fill-opacity="1"><g transform="translate(253.250758, 73.285321)"><g><path d="M 16.015625 -23.53125 C 17.992188 -23.53125 19.539062 -22.929688 20.65625 -21.734375 C 21.769531 -20.535156 22.328125 -18.847656 22.328125 -16.671875 L 22.328125 0 L 15.546875 0 L 15.546875 -15.5 C 15.546875 -16.644531 15.359375 -17.441406 14.984375 -17.890625 C 14.617188 -18.335938 14.09375 -18.5625 13.40625 -18.5625 C 12.03125 -18.5625 10.710938 -17.585938 9.453125 -15.640625 L 9.453125 0 L 2.65625 0 L 2.65625 -31.875 L 9.453125 -32.5625 L 9.453125 -20.359375 C 10.390625 -21.421875 11.390625 -22.210938 12.453125 -22.734375 C 13.515625 -23.265625 14.703125 -23.53125 16.015625 -23.53125 Z M 16.015625 -23.53125 "/></g></g></g><g fill="#0d4186" fill-opacity="1"><g transform="translate(278.032412, 73.285321)"><g><path d="M 9.453125 -22.8125 L 9.453125 0 L 2.65625 0 L 2.65625 -22.8125 Z M 6.015625 -34.828125 C 7.191406 -34.828125 8.160156 -34.460938 8.921875 -33.734375 C 9.679688 -33.003906 10.0625 -32.082031 10.0625 -30.96875 C 10.0625 -29.851562 9.679688 -28.929688 8.921875 -28.203125 C 8.160156 -27.472656 7.191406 -27.109375 6.015625 -27.109375 C 4.835938 -27.109375 3.875 -27.472656 3.125 -28.203125 C 2.382812 -28.929688 2.015625 -29.851562 2.015625 -30.96875 C 2.015625 -32.082031 2.382812 -33.003906 3.125 -33.734375 C 3.875 -34.460938 4.835938 -34.828125 6.015625 -34.828125 Z M 6.015625 -34.828125 "/></g></g></g><g fill="#0d4186" fill-opacity="1"><g transform="translate(290.144082, 73.285321)"><g><path d="M 22.546875 -11.859375 C 22.546875 -10.910156 22.503906 -10.09375 22.421875 -9.40625 L 8.296875 -9.40625 C 8.523438 -7.488281 9.066406 -6.140625 9.921875 -5.359375 C 10.773438 -4.585938 11.960938 -4.203125 13.484375 -4.203125 C 14.398438 -4.203125 15.285156 -4.367188 16.140625 -4.703125 C 17.003906 -5.035156 17.9375 -5.546875 18.9375 -6.234375 L 21.734375 -2.453125 C 19.066406 -0.328125 16.101562 0.734375 12.84375 0.734375 C 9.144531 0.734375 6.304688 -0.351562 4.328125 -2.53125 C 2.359375 -4.707031 1.375 -7.628906 1.375 -11.296875 C 1.375 -13.617188 1.785156 -15.703125 2.609375 -17.546875 C 3.441406 -19.390625 4.660156 -20.847656 6.265625 -21.921875 C 7.867188 -22.992188 9.789062 -23.53125 12.03125 -23.53125 C 15.320312 -23.53125 17.894531 -22.5 19.75 -20.4375 C 21.613281 -18.382812 22.546875 -15.523438 22.546875 -11.859375 Z M 15.890625 -13.78125 C 15.835938 -17.28125 14.609375 -19.03125 12.203125 -19.03125 C 11.023438 -19.03125 10.113281 -18.597656 9.46875 -17.734375 C 8.820312 -16.878906 8.429688 -15.460938 8.296875 -13.484375 L 15.890625 -13.484375 Z M 15.890625 -13.78125 "/></g></g></g><g fill="#0d4186" fill-opacity="1"><g transform="translate(313.852005, 73.285321)"><g><path d="M 8.71875 0.734375 C 6.738281 0.734375 5.195312 0.171875 4.09375 -0.953125 C 3 -2.085938 2.453125 -3.703125 2.453125 -5.796875 L 2.453125 -31.875 L 9.234375 -32.59375 L 9.234375 -6.0625 C 9.234375 -5.113281 9.617188 -4.640625 10.390625 -4.640625 C 10.796875 -4.640625 11.171875 -4.710938 11.515625 -4.859375 L 12.84375 -0.046875 C 11.613281 0.472656 10.238281 0.734375 8.71875 0.734375 Z M 8.71875 0.734375 "/></g></g></g><g fill="#0d4186" fill-opacity="1"><g transform="translate(326.607886, 73.285321)"><g><path d="M 20.796875 -6.609375 C 20.796875 -5.753906 20.914062 -5.125 21.15625 -4.71875 C 21.394531 -4.320312 21.785156 -4.023438 22.328125 -3.828125 L 20.921875 0.59375 C 19.515625 0.476562 18.367188 0.171875 17.484375 -0.328125 C 16.597656 -0.828125 15.910156 -1.617188 15.421875 -2.703125 C 13.929688 -0.410156 11.640625 0.734375 8.546875 0.734375 C 6.285156 0.734375 4.476562 0.078125 3.125 -1.234375 C 1.78125 -2.554688 1.109375 -4.28125 1.109375 -6.40625 C 1.109375 -8.894531 2.023438 -10.796875 3.859375 -12.109375 C 5.691406 -13.429688 8.34375 -14.09375 11.8125 -14.09375 L 14.125 -14.09375 L 14.125 -15.078125 C 14.125 -16.421875 13.835938 -17.34375 13.265625 -17.84375 C 12.691406 -18.34375 11.691406 -18.59375 10.265625 -18.59375 C 9.523438 -18.59375 8.625 -18.484375 7.5625 -18.265625 C 6.5 -18.054688 5.410156 -17.765625 4.296875 -17.390625 L 2.75 -21.859375 C 4.175781 -22.398438 5.640625 -22.8125 7.140625 -23.09375 C 8.648438 -23.382812 10.050781 -23.53125 11.34375 -23.53125 C 14.601562 -23.53125 16.992188 -22.859375 18.515625 -21.515625 C 20.035156 -20.171875 20.796875 -18.15625 20.796875 -15.46875 Z M 10.53125 -4.125 C 12.070312 -4.125 13.269531 -4.851562 14.125 -6.3125 L 14.125 -10.359375 L 12.453125 -10.359375 C 10.910156 -10.359375 9.757812 -10.082031 9 -9.53125 C 8.238281 -8.988281 7.859375 -8.144531 7.859375 -7 C 7.859375 -6.082031 8.09375 -5.375 8.5625 -4.875 C 9.039062 -4.375 9.695312 -4.125 10.53125 -4.125 Z M 10.53125 -4.125 "/></g></g></g><g fill="#0d4186" fill-opacity="1"><g transform="translate(350.14401, 73.285321)"><g><path d="M 16.015625 -23.53125 C 17.992188 -23.53125 19.539062 -22.929688 20.65625 -21.734375 C 21.769531 -20.535156 22.328125 -18.847656 22.328125 -16.671875 L 22.328125 0 L 15.546875 0 L 15.546875 -15.5 C 15.546875 -16.644531 15.363281 -17.441406 15 -17.890625 C 14.644531 -18.335938 14.113281 -18.5625 13.40625 -18.5625 C 12.03125 -18.5625 10.710938 -17.570312 9.453125 -15.59375 L 9.453125 0 L 2.65625 0 L 2.65625 -22.8125 L 8.59375 -22.8125 L 9.0625 -20.109375 C 10.039062 -21.242188 11.09375 -22.097656 12.21875 -22.671875 C 13.351562 -23.242188 14.617188 -23.53125 16.015625 -23.53125 Z M 16.015625 -23.53125 "/></g></g></g><g fill="#ff914d" fill-opacity="1"><g transform="translate(39.464059, 101.78532)"><g><path d="M 14.46875 -1.515625 L 14.46875 0 L 2.703125 0 L 2.703125 -16.640625 L 14.109375 -16.640625 L 14.109375 -15.109375 L 4.46875 -15.109375 L 4.46875 -9.203125 L 13.078125 -9.203125 L 13.078125 -7.703125 L 4.46875 -7.703125 L 4.46875 -1.515625 Z M 14.46875 -1.515625 "/></g></g></g><g fill="#ff914d" fill-opacity="1"><g transform="translate(55.35537, 101.78532)"><g><path d="M 1.421875 -7.171875 L 7.65625 -7.171875 L 7.65625 -5.703125 L 1.421875 -5.703125 Z M 1.421875 -7.171875 "/></g></g></g><g fill="#ff914d" fill-opacity="1"><g transform="translate(64.429332, 101.78532)"><g><path d="M 7.53125 0.125 C 6.300781 0.125 5.195312 -0.144531 4.21875 -0.6875 C 3.238281 -1.226562 2.472656 -1.984375 1.921875 -2.953125 C 1.367188 -3.929688 1.09375 -5.03125 1.09375 -6.25 C 1.09375 -7.46875 1.367188 -8.5625 1.921875 -9.53125 C 2.472656 -10.5 3.238281 -11.25 4.21875 -11.78125 C 5.195312 -12.320312 6.300781 -12.59375 7.53125 -12.59375 C 8.613281 -12.59375 9.578125 -12.382812 10.421875 -11.96875 C 11.265625 -11.550781 11.929688 -10.9375 12.421875 -10.125 L 11.171875 -9.265625 C 10.753906 -9.890625 10.226562 -10.351562 9.59375 -10.65625 C 8.96875 -10.96875 8.28125 -11.125 7.53125 -11.125 C 6.625 -11.125 5.8125 -10.921875 5.09375 -10.515625 C 4.375 -10.109375 3.8125 -9.53125 3.40625 -8.78125 C 3 -8.039062 2.796875 -7.195312 2.796875 -6.25 C 2.796875 -5.28125 3 -4.425781 3.40625 -3.6875 C 3.8125 -2.957031 4.375 -2.390625 5.09375 -1.984375 C 5.8125 -1.578125 6.625 -1.375 7.53125 -1.375 C 8.28125 -1.375 8.96875 -1.523438 9.59375 -1.828125 C 10.226562 -2.128906 10.753906 -2.585938 11.171875 -3.203125 L 12.421875 -2.359375 C 11.929688 -1.546875 11.257812 -0.925781 10.40625 -0.5 C 9.550781 -0.0820312 8.59375 0.125 7.53125 0.125 Z M 7.53125 0.125 "/></g></g></g><g fill="#ff914d" fill-opacity="1"><g transform="translate(77.802737, 101.78532)"><g><path d="M 7.46875 0.125 C 6.257812 0.125 5.171875 -0.144531 4.203125 -0.6875 C 3.234375 -1.238281 2.472656 -2 1.921875 -2.96875 C 1.367188 -3.9375 1.09375 -5.03125 1.09375 -6.25 C 1.09375 -7.46875 1.367188 -8.5625 1.921875 -9.53125 C 2.472656 -10.5 3.234375 -11.25 4.203125 -11.78125 C 5.171875 -12.320312 6.257812 -12.59375 7.46875 -12.59375 C 8.664062 -12.59375 9.75 -12.320312 10.71875 -11.78125 C 11.6875 -11.25 12.441406 -10.5 12.984375 -9.53125 C 13.535156 -8.5625 13.8125 -7.46875 13.8125 -6.25 C 13.8125 -5.03125 13.535156 -3.9375 12.984375 -2.96875 C 12.441406 -2 11.6875 -1.238281 10.71875 -0.6875 C 9.75 -0.144531 8.664062 0.125 7.46875 0.125 Z M 7.46875 -1.375 C 8.351562 -1.375 9.144531 -1.578125 9.84375 -1.984375 C 10.550781 -2.390625 11.101562 -2.960938 11.5 -3.703125 C 11.894531 -4.453125 12.09375 -5.300781 12.09375 -6.25 C 12.09375 -7.195312 11.894531 -8.039062 11.5 -8.78125 C 11.101562 -9.53125 10.550781 -10.109375 9.84375 -10.515625 C 9.144531 -10.921875 8.351562 -11.125 7.46875 -11.125 C 6.570312 -11.125 5.769531 -10.921875 5.0625 -10.515625 C 4.363281 -10.109375 3.8125 -9.53125 3.40625 -8.78125 C 3 -8.039062 2.796875 -7.195312 2.796875 -6.25 C 2.796875 -5.300781 3 -4.453125 3.40625 -3.703125 C 3.8125 -2.960938 4.363281 -2.390625 5.0625 -1.984375 C 5.769531 -1.578125 6.570312 -1.375 7.46875 -1.375 Z M 7.46875 -1.375 "/></g></g></g><g fill="#ff914d" fill-opacity="1"><g transform="translate(92.696386, 101.78532)"><g><path d="M 17.9375 -12.59375 C 19.507812 -12.59375 20.742188 -12.140625 21.640625 -11.234375 C 22.535156 -10.335938 22.984375 -9.007812 22.984375 -7.25 L 22.984375 0 L 21.296875 0 L 21.296875 -7.078125 C 21.296875 -8.378906 20.984375 -9.367188 20.359375 -10.046875 C 19.734375 -10.734375 18.847656 -11.078125 17.703125 -11.078125 C 16.398438 -11.078125 15.375 -10.675781 14.625 -9.875 C 13.882812 -9.070312 13.515625 -7.96875 13.515625 -6.5625 L 13.515625 0 L 11.828125 0 L 11.828125 -7.078125 C 11.828125 -8.378906 11.515625 -9.367188 10.890625 -10.046875 C 10.265625 -10.734375 9.375 -11.078125 8.21875 -11.078125 C 6.9375 -11.078125 5.921875 -10.675781 5.171875 -9.875 C 4.421875 -9.070312 4.046875 -7.96875 4.046875 -6.5625 L 4.046875 0 L 2.359375 0 L 2.359375 -12.5 L 3.96875 -12.5 L 3.96875 -10.21875 C 4.414062 -10.976562 5.035156 -11.5625 5.828125 -11.96875 C 6.617188 -12.382812 7.53125 -12.59375 8.5625 -12.59375 C 9.601562 -12.59375 10.503906 -12.367188 11.265625 -11.921875 C 12.035156 -11.484375 12.613281 -10.828125 13 -9.953125 C 13.457031 -10.773438 14.117188 -11.421875 14.984375 -11.890625 C 15.847656 -12.359375 16.832031 -12.59375 17.9375 -12.59375 Z M 17.9375 -12.59375 "/></g></g></g><g fill="#ff914d" fill-opacity="1"><g transform="translate(117.899193, 101.78532)"><g><path d="M 17.9375 -12.59375 C 19.507812 -12.59375 20.742188 -12.140625 21.640625 -11.234375 C 22.535156 -10.335938 22.984375 -9.007812 22.984375 -7.25 L 22.984375 0 L 21.296875 0 L 21.296875 -7.078125 C 21.296875 -8.378906 20.984375 -9.367188 20.359375 -10.046875 C 19.734375 -10.734375 18.847656 -11.078125 17.703125 -11.078125 C 16.398438 -11.078125 15.375 -10.675781 14.625 -9.875 C 13.882812 -9.070312 13.515625 -7.96875 13.515625 -6.5625 L 13.515625 0 L 11.828125 0 L 11.828125 -7.078125 C 11.828125 -8.378906 11.515625 -9.367188 10.890625 -10.046875 C 10.265625 -10.734375 9.375 -11.078125 8.21875 -11.078125 C 6.9375 -11.078125 5.921875 -10.675781 5.171875 -9.875 C 4.421875 -9.070312 4.046875 -7.96875 4.046875 -6.5625 L 4.046875 0 L 2.359375 0 L 2.359375 -12.5 L 3.96875 -12.5 L 3.96875 -10.21875 C 4.414062 -10.976562 5.035156 -11.5625 5.828125 -11.96875 C 6.617188 -12.382812 7.53125 -12.59375 8.5625 -12.59375 C 9.601562 -12.59375 10.503906 -12.367188 11.265625 -11.921875 C 12.035156 -11.484375 12.613281 -10.828125 13 -9.953125 C 13.457031 -10.773438 14.117188 -11.421875 14.984375 -11.890625 C 15.847656 -12.359375 16.832031 -12.59375 17.9375 -12.59375 Z M 17.9375 -12.59375 "/></g></g></g><g fill="#ff914d" fill-opacity="1"><g transform="translate(143.102001, 101.78532)"><g><path d="M 13.234375 -5.734375 L 2.78125 -5.734375 C 2.875 -4.429688 3.367188 -3.378906 4.265625 -2.578125 C 5.171875 -1.773438 6.316406 -1.375 7.703125 -1.375 C 8.472656 -1.375 9.179688 -1.507812 9.828125 -1.78125 C 10.484375 -2.0625 11.050781 -2.472656 11.53125 -3.015625 L 12.484375 -1.921875 C 11.921875 -1.253906 11.222656 -0.742188 10.390625 -0.390625 C 9.566406 -0.046875 8.65625 0.125 7.65625 0.125 C 6.375 0.125 5.234375 -0.144531 4.234375 -0.6875 C 3.242188 -1.238281 2.472656 -2 1.921875 -2.96875 C 1.367188 -3.9375 1.09375 -5.03125 1.09375 -6.25 C 1.09375 -7.46875 1.359375 -8.5625 1.890625 -9.53125 C 2.421875 -10.5 3.148438 -11.25 4.078125 -11.78125 C 5.003906 -12.320312 6.046875 -12.59375 7.203125 -12.59375 C 8.359375 -12.59375 9.394531 -12.320312 10.3125 -11.78125 C 11.226562 -11.25 11.945312 -10.503906 12.46875 -9.546875 C 13 -8.585938 13.265625 -7.488281 13.265625 -6.25 Z M 7.203125 -11.140625 C 5.992188 -11.140625 4.984375 -10.753906 4.171875 -9.984375 C 3.359375 -9.222656 2.894531 -8.222656 2.78125 -6.984375 L 11.640625 -6.984375 C 11.535156 -8.222656 11.070312 -9.222656 10.25 -9.984375 C 9.4375 -10.753906 8.421875 -11.140625 7.203125 -11.140625 Z M 7.203125 -11.140625 "/></g></g></g><g fill="#ff914d" fill-opacity="1"><g transform="translate(157.449309, 101.78532)"><g><path d="M 3.96875 -10.046875 C 4.363281 -10.890625 4.953125 -11.523438 5.734375 -11.953125 C 6.523438 -12.378906 7.5 -12.59375 8.65625 -12.59375 L 8.65625 -10.953125 L 8.25 -10.984375 C 6.9375 -10.984375 5.90625 -10.578125 5.15625 -9.765625 C 4.414062 -8.960938 4.046875 -7.832031 4.046875 -6.375 L 4.046875 0 L 2.359375 0 L 2.359375 -12.5 L 3.96875 -12.5 Z M 3.96875 -10.046875 "/></g></g></g><g fill="#ff914d" fill-opacity="1"><g transform="translate(166.974592, 101.78532)"><g><path d="M 7.53125 0.125 C 6.300781 0.125 5.195312 -0.144531 4.21875 -0.6875 C 3.238281 -1.226562 2.472656 -1.984375 1.921875 -2.953125 C 1.367188 -3.929688 1.09375 -5.03125 1.09375 -6.25 C 1.09375 -7.46875 1.367188 -8.5625 1.921875 -9.53125 C 2.472656 -10.5 3.238281 -11.25 4.21875 -11.78125 C 5.195312 -12.320312 6.300781 -12.59375 7.53125 -12.59375 C 8.613281 -12.59375 9.578125 -12.382812 10.421875 -11.96875 C 11.265625 -11.550781 11.929688 -10.9375 12.421875 -10.125 L 11.171875 -9.265625 C 10.753906 -9.890625 10.226562 -10.351562 9.59375 -10.65625 C 8.96875 -10.96875 8.28125 -11.125 7.53125 -11.125 C 6.625 -11.125 5.8125 -10.921875 5.09375 -10.515625 C 4.375 -10.109375 3.8125 -9.53125 3.40625 -8.78125 C 3 -8.039062 2.796875 -7.195312 2.796875 -6.25 C 2.796875 -5.28125 3 -4.425781 3.40625 -3.6875 C 3.8125 -2.957031 4.375 -2.390625 5.09375 -1.984375 C 5.8125 -1.578125 6.625 -1.375 7.53125 -1.375 C 8.28125 -1.375 8.96875 -1.523438 9.59375 -1.828125 C 10.226562 -2.128906 10.753906 -2.585938 11.171875 -3.203125 L 12.421875 -2.359375 C 11.929688 -1.546875 11.257812 -0.925781 10.40625 -0.5 C 9.550781 -0.0820312 8.59375 0.125 7.53125 0.125 Z M 7.53125 0.125 "/></g></g></g><g fill="#ff914d" fill-opacity="1"><g transform="translate(180.347996, 101.78532)"><g><path d="M 13.234375 -5.734375 L 2.78125 -5.734375 C 2.875 -4.429688 3.367188 -3.378906 4.265625 -2.578125 C 5.171875 -1.773438 6.316406 -1.375 7.703125 -1.375 C 8.472656 -1.375 9.179688 -1.507812 9.828125 -1.78125 C 10.484375 -2.0625 11.050781 -2.472656 11.53125 -3.015625 L 12.484375 -1.921875 C 11.921875 -1.253906 11.222656 -0.742188 10.390625 -0.390625 C 9.566406 -0.046875 8.65625 0.125 7.65625 0.125 C 6.375 0.125 5.234375 -0.144531 4.234375 -0.6875 C 3.242188 -1.238281 2.472656 -2 1.921875 -2.96875 C 1.367188 -3.9375 1.09375 -5.03125 1.09375 -6.25 C 1.09375 -7.46875 1.359375 -8.5625 1.890625 -9.53125 C 2.421875 -10.5 3.148438 -11.25 4.078125 -11.78125 C 5.003906 -12.320312 6.046875 -12.59375 7.203125 -12.59375 C 8.359375 -12.59375 9.394531 -12.320312 10.3125 -11.78125 C 11.226562 -11.25 11.945312 -10.503906 12.46875 -9.546875 C 13 -8.585938 13.265625 -7.488281 13.265625 -6.25 Z M 7.203125 -11.140625 C 5.992188 -11.140625 4.984375 -10.753906 4.171875 -9.984375 C 3.359375 -9.222656 2.894531 -8.222656 2.78125 -6.984375 L 11.640625 -6.984375 C 11.535156 -8.222656 11.070312 -9.222656 10.25 -9.984375 C 9.4375 -10.753906 8.421875 -11.140625 7.203125 -11.140625 Z M 7.203125 -11.140625 "/></g></g></g><g fill="#ff914d" fill-opacity="1"><g transform="translate(194.695304, 101.78532)"><g/></g></g><g fill="#ff914d" fill-opacity="1"><g transform="translate(200.918807, 101.78532)"><g><path d="M 19.984375 -16.640625 L 19.984375 0 L 18.296875 0 L 18.296875 -13.3125 L 11.765625 -2.109375 L 10.9375 -2.109375 L 4.390625 -13.234375 L 4.390625 0 L 2.703125 0 L 2.703125 -16.640625 L 4.15625 -16.640625 L 11.390625 -4.296875 L 18.53125 -16.640625 Z M 19.984375 -16.640625 "/></g></g></g><g fill="#ff914d" fill-opacity="1"><g transform="translate(223.603708, 101.78532)"><g><path d="M 6.71875 -12.59375 C 8.351562 -12.59375 9.601562 -12.179688 10.46875 -11.359375 C 11.34375 -10.546875 11.78125 -9.34375 11.78125 -7.75 L 11.78125 0 L 10.171875 0 L 10.171875 -1.953125 C 9.785156 -1.296875 9.222656 -0.785156 8.484375 -0.421875 C 7.753906 -0.0546875 6.882812 0.125 5.875 0.125 C 4.476562 0.125 3.367188 -0.207031 2.546875 -0.875 C 1.722656 -1.539062 1.3125 -2.421875 1.3125 -3.515625 C 1.3125 -4.578125 1.691406 -5.429688 2.453125 -6.078125 C 3.222656 -6.734375 4.445312 -7.0625 6.125 -7.0625 L 10.09375 -7.0625 L 10.09375 -7.8125 C 10.09375 -8.894531 9.789062 -9.71875 9.1875 -10.28125 C 8.59375 -10.84375 7.71875 -11.125 6.5625 -11.125 C 5.769531 -11.125 5.007812 -10.992188 4.28125 -10.734375 C 3.550781 -10.472656 2.925781 -10.113281 2.40625 -9.65625 L 1.640625 -10.90625 C 2.273438 -11.445312 3.035156 -11.863281 3.921875 -12.15625 C 4.804688 -12.445312 5.738281 -12.59375 6.71875 -12.59375 Z M 6.125 -1.21875 C 7.082031 -1.21875 7.898438 -1.429688 8.578125 -1.859375 C 9.253906 -2.296875 9.757812 -2.925781 10.09375 -3.75 L 10.09375 -5.796875 L 6.171875 -5.796875 C 4.035156 -5.796875 2.96875 -5.050781 2.96875 -3.5625 C 2.96875 -2.832031 3.242188 -2.257812 3.796875 -1.84375 C 4.359375 -1.425781 5.132812 -1.21875 6.125 -1.21875 Z M 6.125 -1.21875 "/></g></g></g><g fill="#ff914d" fill-opacity="1"><g transform="translate(237.618451, 101.78532)"><g><path d="M 8.71875 -12.59375 C 10.289062 -12.59375 11.539062 -12.132812 12.46875 -11.21875 C 13.394531 -10.3125 13.859375 -8.988281 13.859375 -7.25 L 13.859375 0 L 12.171875 0 L 12.171875 -7.078125 C 12.171875 -8.378906 11.84375 -9.367188 11.1875 -10.046875 C 10.539062 -10.734375 9.613281 -11.078125 8.40625 -11.078125 C 7.0625 -11.078125 6 -10.675781 5.21875 -9.875 C 4.4375 -9.070312 4.046875 -7.96875 4.046875 -6.5625 L 4.046875 0 L 2.359375 0 L 2.359375 -12.5 L 3.96875 -12.5 L 3.96875 -10.203125 C 4.425781 -10.960938 5.0625 -11.550781 5.875 -11.96875 C 6.695312 -12.382812 7.644531 -12.59375 8.71875 -12.59375 Z M 8.71875 -12.59375 "/></g></g></g><g fill="#ff914d" fill-opacity="1"><g transform="translate(253.699779, 101.78532)"><g><path d="M 6.71875 -12.59375 C 8.351562 -12.59375 9.601562 -12.179688 10.46875 -11.359375 C 11.34375 -10.546875 11.78125 -9.34375 11.78125 -7.75 L 11.78125 0 L 10.171875 0 L 10.171875 -1.953125 C 9.785156 -1.296875 9.222656 -0.785156 8.484375 -0.421875 C 7.753906 -0.0546875 6.882812 0.125 5.875 0.125 C 4.476562 0.125 3.367188 -0.207031 2.546875 -0.875 C 1.722656 -1.539062 1.3125 -2.421875 1.3125 -3.515625 C 1.3125 -4.578125 1.691406 -5.429688 2.453125 -6.078125 C 3.222656 -6.734375 4.445312 -7.0625 6.125 -7.0625 L 10.09375 -7.0625 L 10.09375 -7.8125 C 10.09375 -8.894531 9.789062 -9.71875 9.1875 -10.28125 C 8.59375 -10.84375 7.71875 -11.125 6.5625 -11.125 C 5.769531 -11.125 5.007812 -10.992188 4.28125 -10.734375 C 3.550781 -10.472656 2.925781 -10.113281 2.40625 -9.65625 L 1.640625 -10.90625 C 2.273438 -11.445312 3.035156 -11.863281 3.921875 -12.15625 C 4.804688 -12.445312 5.738281 -12.59375 6.71875 -12.59375 Z M 6.125 -1.21875 C 7.082031 -1.21875 7.898438 -1.429688 8.578125 -1.859375 C 9.253906 -2.296875 9.757812 -2.925781 10.09375 -3.75 L 10.09375 -5.796875 L 6.171875 -5.796875 C 4.035156 -5.796875 2.96875 -5.050781 2.96875 -3.5625 C 2.96875 -2.832031 3.242188 -2.257812 3.796875 -1.84375 C 4.359375 -1.425781 5.132812 -1.21875 6.125 -1.21875 Z M 6.125 -1.21875 "/></g></g></g><g fill="#ff914d" fill-opacity="1"><g transform="translate(267.714533, 101.78532)"><g><path d="M 13.921875 -12.5 L 13.921875 -1.515625 C 13.921875 0.597656 13.398438 2.164062 12.359375 3.1875 C 11.328125 4.21875 9.765625 4.734375 7.671875 4.734375 C 6.515625 4.734375 5.414062 4.5625 4.375 4.21875 C 3.34375 3.875 2.503906 3.398438 1.859375 2.796875 L 2.703125 1.515625 C 3.304688 2.054688 4.039062 2.476562 4.90625 2.78125 C 5.769531 3.082031 6.675781 3.234375 7.625 3.234375 C 9.207031 3.234375 10.367188 2.863281 11.109375 2.125 C 11.859375 1.382812 12.234375 0.238281 12.234375 -1.3125 L 12.234375 -2.90625 C 11.710938 -2.113281 11.023438 -1.507812 10.171875 -1.09375 C 9.328125 -0.675781 8.394531 -0.46875 7.375 -0.46875 C 6.195312 -0.46875 5.128906 -0.722656 4.171875 -1.234375 C 3.210938 -1.753906 2.457031 -2.476562 1.90625 -3.40625 C 1.363281 -4.332031 1.09375 -5.382812 1.09375 -6.5625 C 1.09375 -7.726562 1.363281 -8.769531 1.90625 -9.6875 C 2.457031 -10.613281 3.207031 -11.328125 4.15625 -11.828125 C 5.101562 -12.335938 6.175781 -12.59375 7.375 -12.59375 C 8.425781 -12.59375 9.378906 -12.378906 10.234375 -11.953125 C 11.097656 -11.523438 11.789062 -10.90625 12.3125 -10.09375 L 12.3125 -12.5 Z M 7.53125 -1.96875 C 8.4375 -1.96875 9.253906 -2.160156 9.984375 -2.546875 C 10.710938 -2.941406 11.273438 -3.488281 11.671875 -4.1875 C 12.078125 -4.882812 12.28125 -5.675781 12.28125 -6.5625 C 12.28125 -7.445312 12.078125 -8.234375 11.671875 -8.921875 C 11.273438 -9.609375 10.710938 -10.144531 9.984375 -10.53125 C 9.265625 -10.925781 8.445312 -11.125 7.53125 -11.125 C 6.625 -11.125 5.8125 -10.929688 5.09375 -10.546875 C 4.375 -10.171875 3.8125 -9.632812 3.40625 -8.9375 C 3 -8.238281 2.796875 -7.445312 2.796875 -6.5625 C 2.796875 -5.675781 3 -4.882812 3.40625 -4.1875 C 3.8125 -3.488281 4.375 -2.941406 5.09375 -2.546875 C 5.8125 -2.160156 6.625 -1.96875 7.53125 -1.96875 Z M 7.53125 -1.96875 "/></g></g></g><g fill="#ff914d" fill-opacity="1"><g transform="translate(284.009637, 101.78532)"><g><path d="M 13.234375 -5.734375 L 2.78125 -5.734375 C 2.875 -4.429688 3.367188 -3.378906 4.265625 -2.578125 C 5.171875 -1.773438 6.316406 -1.375 7.703125 -1.375 C 8.472656 -1.375 9.179688 -1.507812 9.828125 -1.78125 C 10.484375 -2.0625 11.050781 -2.472656 11.53125 -3.015625 L 12.484375 -1.921875 C 11.921875 -1.253906 11.222656 -0.742188 10.390625 -0.390625 C 9.566406 -0.046875 8.65625 0.125 7.65625 0.125 C 6.375 0.125 5.234375 -0.144531 4.234375 -0.6875 C 3.242188 -1.238281 2.472656 -2 1.921875 -2.96875 C 1.367188 -3.9375 1.09375 -5.03125 1.09375 -6.25 C 1.09375 -7.46875 1.359375 -8.5625 1.890625 -9.53125 C 2.421875 -10.5 3.148438 -11.25 4.078125 -11.78125 C 5.003906 -12.320312 6.046875 -12.59375 7.203125 -12.59375 C 8.359375 -12.59375 9.394531 -12.320312 10.3125 -11.78125 C 11.226562 -11.25 11.945312 -10.503906 12.46875 -9.546875 C 13 -8.585938 13.265625 -7.488281 13.265625 -6.25 Z M 7.203125 -11.140625 C 5.992188 -11.140625 4.984375 -10.753906 4.171875 -9.984375 C 3.359375 -9.222656 2.894531 -8.222656 2.78125 -6.984375 L 11.640625 -6.984375 C 11.535156 -8.222656 11.070312 -9.222656 10.25 -9.984375 C 9.4375 -10.753906 8.421875 -11.140625 7.203125 -11.140625 Z M 7.203125 -11.140625 "/></g></g></g><g fill="#ff914d" fill-opacity="1"><g transform="translate(298.356957, 101.78532)"><g><path d="M 3.96875 -10.046875 C 4.363281 -10.890625 4.953125 -11.523438 5.734375 -11.953125 C 6.523438 -12.378906 7.5 -12.59375 8.65625 -12.59375 L 8.65625 -10.953125 L 8.25 -10.984375 C 6.9375 -10.984375 5.90625 -10.578125 5.15625 -9.765625 C 4.414062 -8.960938 4.046875 -7.832031 4.046875 -6.375 L 4.046875 0 L 2.359375 0 L 2.359375 -12.5 L 3.96875 -12.5 Z M 3.96875 -10.046875 "/></g></g></g><g fill="#ff914d" fill-opacity="1"><g transform="translate(307.88224, 101.78532)"><g/></g></g><g fill="#ff914d" fill-opacity="1"><g transform="translate(314.105743, 101.78532)"><g><path d="M 4.484375 0.140625 C 3.535156 0.140625 2.65625 -0.0625 1.84375 -0.46875 C 1.039062 -0.882812 0.382812 -1.472656 -0.125 -2.234375 L 0.921875 -3.421875 C 1.847656 -2.054688 3.046875 -1.375 4.515625 -1.375 C 6.578125 -1.375 7.609375 -2.59375 7.609375 -5.03125 L 7.609375 -15.109375 L 1.515625 -15.109375 L 1.515625 -16.640625 L 9.34375 -16.640625 L 9.34375 -5.109375 C 9.34375 -3.367188 8.929688 -2.054688 8.109375 -1.171875 C 7.296875 -0.296875 6.085938 0.140625 4.484375 0.140625 Z M 4.484375 0.140625 "/></g></g></g><g fill="#ff914d" fill-opacity="1"><g transform="translate(326.006408, 101.78532)"><g><path d="M 3.96875 -10.046875 C 4.363281 -10.890625 4.953125 -11.523438 5.734375 -11.953125 C 6.523438 -12.378906 7.5 -12.59375 8.65625 -12.59375 L 8.65625 -10.953125 L 8.25 -10.984375 C 6.9375 -10.984375 5.90625 -10.578125 5.15625 -9.765625 C 4.414062 -8.960938 4.046875 -7.832031 4.046875 -6.375 L 4.046875 0 L 2.359375 0 L 2.359375 -12.5 L 3.96875 -12.5 Z M 3.96875 -10.046875 "/></g></g></g></svg>