<svg xmlns="http://www.w3.org/2000/svg" xmlns:xlink="http://www.w3.org/1999/xlink" width="500" zoomAndPan="magnify" viewBox="0 0 375 74.999997" height="100" preserveAspectRatio="xMidYMid meet" version="1.0"><defs><g/></defs><g fill="#ff914d" fill-opacity="1"><g transform="translate(55.387961, 56.869785)"><g><path d="M 6.34375 -0.671875 L 6.34375 0 L 1.1875 0 L 1.1875 -7.296875 L 6.1875 -7.296875 L 6.1875 -6.625 L 1.953125 -6.625 L 1.953125 -4.03125 L 5.734375 -4.03125 L 5.734375 -3.375 L 1.953125 -3.375 L 1.953125 -0.671875 Z M 6.34375 -0.671875 "/></g></g></g><g fill="#ff914d" fill-opacity="1"><g transform="translate(70.702921, 56.869785)"><g><path d="M 4.359375 0.0625 C 3.628906 0.0625 2.972656 -0.09375 2.390625 -0.40625 C 1.816406 -0.726562 1.363281 -1.171875 1.03125 -1.734375 C 0.707031 -2.304688 0.546875 -2.941406 0.546875 -3.640625 C 0.546875 -4.347656 0.707031 -4.984375 1.03125 -5.546875 C 1.363281 -6.117188 1.820312 -6.5625 2.40625 -6.875 C 2.988281 -7.195312 3.640625 -7.359375 4.359375 -7.359375 C 4.910156 -7.359375 5.414062 -7.265625 5.875 -7.078125 C 6.332031 -6.898438 6.71875 -6.640625 7.03125 -6.296875 L 6.546875 -5.8125 C 5.972656 -6.382812 5.253906 -6.671875 4.390625 -6.671875 C 3.804688 -6.671875 3.28125 -6.535156 2.8125 -6.265625 C 2.34375 -6.003906 1.972656 -5.644531 1.703125 -5.1875 C 1.429688 -4.726562 1.296875 -4.210938 1.296875 -3.640625 C 1.296875 -3.078125 1.429688 -2.566406 1.703125 -2.109375 C 1.972656 -1.648438 2.34375 -1.285156 2.8125 -1.015625 C 3.28125 -0.753906 3.804688 -0.625 4.390625 -0.625 C 5.265625 -0.625 5.984375 -0.914062 6.546875 -1.5 L 7.03125 -1.015625 C 6.71875 -0.660156 6.328125 -0.390625 5.859375 -0.203125 C 5.398438 -0.0234375 4.898438 0.0625 4.359375 0.0625 Z M 4.359375 0.0625 "/></g></g></g><g fill="#ff914d" fill-opacity="1"><g transform="translate(86.538782, 56.869785)"><g><path d="M 4.375 0.0625 C 3.65625 0.0625 3 -0.0976562 2.40625 -0.421875 C 1.820312 -0.742188 1.363281 -1.1875 1.03125 -1.75 C 0.707031 -2.3125 0.546875 -2.941406 0.546875 -3.640625 C 0.546875 -4.347656 0.707031 -4.984375 1.03125 -5.546875 C 1.363281 -6.109375 1.820312 -6.550781 2.40625 -6.875 C 3 -7.195312 3.65625 -7.359375 4.375 -7.359375 C 5.101562 -7.359375 5.753906 -7.195312 6.328125 -6.875 C 6.910156 -6.5625 7.367188 -6.117188 7.703125 -5.546875 C 8.035156 -4.984375 8.203125 -4.347656 8.203125 -3.640625 C 8.203125 -2.941406 8.035156 -2.304688 7.703125 -1.734375 C 7.367188 -1.171875 6.910156 -0.726562 6.328125 -0.40625 C 5.753906 -0.09375 5.101562 0.0625 4.375 0.0625 Z M 4.375 -0.625 C 4.957031 -0.625 5.476562 -0.753906 5.9375 -1.015625 C 6.40625 -1.273438 6.769531 -1.632812 7.03125 -2.09375 C 7.300781 -2.5625 7.4375 -3.078125 7.4375 -3.640625 C 7.4375 -4.210938 7.300781 -4.726562 7.03125 -5.1875 C 6.769531 -5.65625 6.40625 -6.019531 5.9375 -6.28125 C 5.476562 -6.539062 4.957031 -6.671875 4.375 -6.671875 C 3.800781 -6.671875 3.28125 -6.539062 2.8125 -6.28125 C 2.34375 -6.019531 1.972656 -5.65625 1.703125 -5.1875 C 1.429688 -4.726562 1.296875 -4.210938 1.296875 -3.640625 C 1.296875 -3.078125 1.429688 -2.5625 1.703125 -2.09375 C 1.972656 -1.632812 2.34375 -1.273438 2.8125 -1.015625 C 3.28125 -0.753906 3.800781 -0.625 4.375 -0.625 Z M 4.375 -0.625 "/></g></g></g><g fill="#ff914d" fill-opacity="1"><g transform="translate(103.624804, 56.869785)"><g><path d="M 8.765625 -7.296875 L 8.765625 0 L 8.03125 0 L 8.03125 -5.84375 L 5.15625 -0.921875 L 4.796875 -0.921875 L 1.921875 -5.8125 L 1.921875 0 L 1.1875 0 L 1.1875 -7.296875 L 1.828125 -7.296875 L 4.984375 -1.890625 L 8.125 -7.296875 Z M 8.765625 -7.296875 "/></g></g></g><g fill="#ff914d" fill-opacity="1"><g transform="translate(121.919327, 56.869785)"><g><path d="M 8.765625 -7.296875 L 8.765625 0 L 8.03125 0 L 8.03125 -5.84375 L 5.15625 -0.921875 L 4.796875 -0.921875 L 1.921875 -5.8125 L 1.921875 0 L 1.1875 0 L 1.1875 -7.296875 L 1.828125 -7.296875 L 4.984375 -1.890625 L 8.125 -7.296875 Z M 8.765625 -7.296875 "/></g></g></g><g fill="#ff914d" fill-opacity="1"><g transform="translate(140.213851, 56.869785)"><g><path d="M 6.34375 -0.671875 L 6.34375 0 L 1.1875 0 L 1.1875 -7.296875 L 6.1875 -7.296875 L 6.1875 -6.625 L 1.953125 -6.625 L 1.953125 -4.03125 L 5.734375 -4.03125 L 5.734375 -3.375 L 1.953125 -3.375 L 1.953125 -0.671875 Z M 6.34375 -0.671875 "/></g></g></g><g fill="#ff914d" fill-opacity="1"><g transform="translate(155.528813, 56.869785)"><g><path d="M 6.171875 0 L 4.5 -2.34375 C 4.3125 -2.320312 4.117188 -2.3125 3.921875 -2.3125 L 1.953125 -2.3125 L 1.953125 0 L 1.1875 0 L 1.1875 -7.296875 L 3.921875 -7.296875 C 4.847656 -7.296875 5.578125 -7.070312 6.109375 -6.625 C 6.640625 -6.1875 6.90625 -5.578125 6.90625 -4.796875 C 6.90625 -4.222656 6.757812 -3.738281 6.46875 -3.34375 C 6.175781 -2.957031 5.765625 -2.675781 5.234375 -2.5 L 7.015625 0 Z M 3.890625 -2.96875 C 4.617188 -2.96875 5.171875 -3.125 5.546875 -3.4375 C 5.929688 -3.757812 6.125 -4.210938 6.125 -4.796875 C 6.125 -5.390625 5.929688 -5.84375 5.546875 -6.15625 C 5.171875 -6.46875 4.617188 -6.625 3.890625 -6.625 L 1.953125 -6.625 L 1.953125 -2.96875 Z M 3.890625 -2.96875 "/></g></g></g><g fill="#ff914d" fill-opacity="1"><g transform="translate(171.406356, 56.869785)"><g><path d="M 4.359375 0.0625 C 3.628906 0.0625 2.972656 -0.09375 2.390625 -0.40625 C 1.816406 -0.726562 1.363281 -1.171875 1.03125 -1.734375 C 0.707031 -2.304688 0.546875 -2.941406 0.546875 -3.640625 C 0.546875 -4.347656 0.707031 -4.984375 1.03125 -5.546875 C 1.363281 -6.117188 1.820312 -6.5625 2.40625 -6.875 C 2.988281 -7.195312 3.640625 -7.359375 4.359375 -7.359375 C 4.910156 -7.359375 5.414062 -7.265625 5.875 -7.078125 C 6.332031 -6.898438 6.71875 -6.640625 7.03125 -6.296875 L 6.546875 -5.8125 C 5.972656 -6.382812 5.253906 -6.671875 4.390625 -6.671875 C 3.804688 -6.671875 3.28125 -6.535156 2.8125 -6.265625 C 2.34375 -6.003906 1.972656 -5.644531 1.703125 -5.1875 C 1.429688 -4.726562 1.296875 -4.210938 1.296875 -3.640625 C 1.296875 -3.078125 1.429688 -2.566406 1.703125 -2.109375 C 1.972656 -1.648438 2.34375 -1.285156 2.8125 -1.015625 C 3.28125 -0.753906 3.804688 -0.625 4.390625 -0.625 C 5.265625 -0.625 5.984375 -0.914062 6.546875 -1.5 L 7.03125 -1.015625 C 6.71875 -0.660156 6.328125 -0.390625 5.859375 -0.203125 C 5.398438 -0.0234375 4.898438 0.0625 4.359375 0.0625 Z M 4.359375 0.0625 "/></g></g></g><g fill="#ff914d" fill-opacity="1"><g transform="translate(187.24222, 56.869785)"><g><path d="M 6.34375 -0.671875 L 6.34375 0 L 1.1875 0 L 1.1875 -7.296875 L 6.1875 -7.296875 L 6.1875 -6.625 L 1.953125 -6.625 L 1.953125 -4.03125 L 5.734375 -4.03125 L 5.734375 -3.375 L 1.953125 -3.375 L 1.953125 -0.671875 Z M 6.34375 -0.671875 "/></g></g></g><g fill="#ff914d" fill-opacity="1"><g transform="translate(202.557183, 56.869785)"><g/></g></g><g fill="#ff914d" fill-opacity="1"><g transform="translate(213.631996, 56.869785)"><g><path d="M 8.765625 -7.296875 L 8.765625 0 L 8.03125 0 L 8.03125 -5.84375 L 5.15625 -0.921875 L 4.796875 -0.921875 L 1.921875 -5.8125 L 1.921875 0 L 1.1875 0 L 1.1875 -7.296875 L 1.828125 -7.296875 L 4.984375 -1.890625 L 8.125 -7.296875 Z M 8.765625 -7.296875 "/></g></g></g><g fill="#ff914d" fill-opacity="1"><g transform="translate(231.92652, 56.869785)"><g><path d="M 5.765625 -1.953125 L 1.703125 -1.953125 L 0.828125 0 L 0.015625 0 L 3.359375 -7.296875 L 4.109375 -7.296875 L 7.453125 0 L 6.640625 0 Z M 5.484375 -2.578125 L 3.734375 -6.5 L 1.984375 -2.578125 Z M 5.484375 -2.578125 "/></g></g></g><g fill="#ff914d" fill-opacity="1"><g transform="translate(247.741543, 56.869785)"><g><path d="M 7.28125 -7.296875 L 7.28125 0 L 6.65625 0 L 1.953125 -5.921875 L 1.953125 0 L 1.1875 0 L 1.1875 -7.296875 L 1.828125 -7.296875 L 6.53125 -1.375 L 6.53125 -7.296875 Z M 7.28125 -7.296875 "/></g></g></g><g fill="#ff914d" fill-opacity="1"><g transform="translate(264.55669, 56.869785)"><g><path d="M 5.765625 -1.953125 L 1.703125 -1.953125 L 0.828125 0 L 0.015625 0 L 3.359375 -7.296875 L 4.109375 -7.296875 L 7.453125 0 L 6.640625 0 Z M 5.484375 -2.578125 L 3.734375 -6.5 L 1.984375 -2.578125 Z M 5.484375 -2.578125 "/></g></g></g><g fill="#ff914d" fill-opacity="1"><g transform="translate(280.371713, 56.869785)"><g><path d="M 6.328125 -3.640625 L 7.0625 -3.640625 L 7.0625 -0.859375 C 6.726562 -0.566406 6.328125 -0.335938 5.859375 -0.171875 C 5.390625 -0.015625 4.898438 0.0625 4.390625 0.0625 C 3.660156 0.0625 3.003906 -0.09375 2.421875 -0.40625 C 1.835938 -0.726562 1.378906 -1.171875 1.046875 -1.734375 C 0.710938 -2.304688 0.546875 -2.941406 0.546875 -3.640625 C 0.546875 -4.347656 0.710938 -4.984375 1.046875 -5.546875 C 1.378906 -6.117188 1.835938 -6.5625 2.421875 -6.875 C 3.003906 -7.195312 3.660156 -7.359375 4.390625 -7.359375 C 4.953125 -7.359375 5.460938 -7.269531 5.921875 -7.09375 C 6.390625 -6.914062 6.785156 -6.65625 7.109375 -6.3125 L 6.625 -5.8125 C 6.050781 -6.382812 5.316406 -6.671875 4.421875 -6.671875 C 3.835938 -6.671875 3.304688 -6.539062 2.828125 -6.28125 C 2.347656 -6.019531 1.972656 -5.65625 1.703125 -5.1875 C 1.429688 -4.726562 1.296875 -4.210938 1.296875 -3.640625 C 1.296875 -3.078125 1.429688 -2.566406 1.703125 -2.109375 C 1.972656 -1.648438 2.34375 -1.285156 2.8125 -1.015625 C 3.289062 -0.753906 3.828125 -0.625 4.421875 -0.625 C 5.171875 -0.625 5.804688 -0.8125 6.328125 -1.1875 Z M 6.328125 -3.640625 "/></g></g></g><g fill="#ff914d" fill-opacity="1"><g transform="translate(296.770158, 56.869785)"><g><path d="M 6.34375 -0.671875 L 6.34375 0 L 1.1875 0 L 1.1875 -7.296875 L 6.1875 -7.296875 L 6.1875 -6.625 L 1.953125 -6.625 L 1.953125 -4.03125 L 5.734375 -4.03125 L 5.734375 -3.375 L 1.953125 -3.375 L 1.953125 -0.671875 Z M 6.34375 -0.671875 "/></g></g></g><g fill="#ff914d" fill-opacity="1"><g transform="translate(312.08512, 56.869785)"><g><path d="M 6.171875 0 L 4.5 -2.34375 C 4.3125 -2.320312 4.117188 -2.3125 3.921875 -2.3125 L 1.953125 -2.3125 L 1.953125 0 L 1.1875 0 L 1.1875 -7.296875 L 3.921875 -7.296875 C 4.847656 -7.296875 5.578125 -7.070312 6.109375 -6.625 C 6.640625 -6.1875 6.90625 -5.578125 6.90625 -4.796875 C 6.90625 -4.222656 6.757812 -3.738281 6.46875 -3.34375 C 6.175781 -2.957031 5.765625 -2.675781 5.234375 -2.5 L 7.015625 0 Z M 3.890625 -2.96875 C 4.617188 -2.96875 5.171875 -3.125 5.546875 -3.4375 C 5.929688 -3.757812 6.125 -4.210938 6.125 -4.796875 C 6.125 -5.390625 5.929688 -5.84375 5.546875 -6.15625 C 5.171875 -6.46875 4.617188 -6.625 3.890625 -6.625 L 1.953125 -6.625 L 1.953125 -2.96875 Z M 3.890625 -2.96875 "/></g></g></g><g fill="#58297a" fill-opacity="1"><g transform="translate(12.196964, 37.759803)"><g><path d="M 11.488281 0.457031 C 16.441406 0.457031 20.339844 -2.863281 21.253906 -7.820312 L 16.871094 -7.820312 C 16.15625 -5.300781 14.121094 -3.695312 11.488281 -3.695312 C 8.078125 -3.695312 5.527344 -6.386719 5.527344 -9.996094 C 5.527344 -13.605469 8.078125 -16.328125 11.488281 -16.328125 C 14.007812 -16.328125 16.011719 -14.839844 16.84375 -12.488281 L 21.167969 -12.488281 C 20.253906 -17.246094 16.355469 -20.480469 11.488281 -20.480469 C 5.585938 -20.480469 1.117188 -15.957031 1.117188 -9.996094 C 1.117188 -4.066406 5.585938 0.457031 11.488281 0.457031 Z M 11.488281 0.457031 "/></g></g></g><g fill="#58297a" fill-opacity="1"><g transform="translate(35.706618, 37.759803)"><g><path d="M 14.179688 -20.050781 L 14.179688 -12.316406 L 6.617188 -12.316406 L 6.617188 -20.050781 L 2.292969 -20.050781 L 2.292969 0 L 6.617188 0 L 6.617188 -8.277344 L 14.179688 -8.277344 L 14.179688 0 L 18.503906 0 L 18.503906 -20.050781 Z M 14.179688 -20.050781 "/></g></g></g><g fill="#58297a" fill-opacity="1"><g transform="translate(57.956373, 37.759803)"><g><path d="M 13.320312 0 L 18.160156 0 L 13.722656 -7.5625 C 15.957031 -8.652344 17.386719 -10.769531 17.386719 -13.40625 C 17.386719 -17.273438 14.378906 -20.050781 10.371094 -20.050781 L 2.292969 -20.050781 L 2.292969 0 L 6.617188 0 L 6.617188 -6.816406 L 9.394531 -6.816406 Z M 6.617188 -16.042969 L 10.082031 -16.042969 C 11.917969 -16.042969 12.976562 -14.925781 12.976562 -13.433594 C 12.976562 -11.917969 11.917969 -10.828125 10.082031 -10.828125 L 6.617188 -10.828125 Z M 6.617188 -16.042969 "/></g></g></g><g fill="#58297a" fill-opacity="1"><g transform="translate(78.316295, 37.759803)"><g><path d="M 2.292969 0 L 6.617188 0 L 6.617188 -20.050781 L 2.292969 -20.050781 Z M 2.292969 0 "/></g></g></g><g fill="#58297a" fill-opacity="1"><g transform="translate(88.682912, 37.759803)"><g><path d="M 8.9375 0.402344 C 13.089844 0.402344 16.527344 -1.691406 16.527344 -6.015625 C 16.527344 -10.511719 12.691406 -11.457031 9.652344 -12.230469 C 7.503906 -12.746094 5.785156 -13.175781 5.785156 -14.582031 C 5.785156 -15.898438 7.191406 -16.5 8.59375 -16.5 C 10.226562 -16.5 11.660156 -15.699219 11.660156 -13.949219 L 15.925781 -13.949219 C 15.925781 -17.960938 13.320312 -20.425781 8.707031 -20.425781 C 4.269531 -20.425781 1.433594 -18.246094 1.433594 -14.410156 C 1.433594 -10.082031 5.097656 -9.195312 8.136719 -8.449219 C 10.3125 -7.964844 12.144531 -7.535156 12.144531 -5.957031 C 12.144531 -4.46875 10.542969 -3.609375 8.910156 -3.609375 C 7.132812 -3.609375 5.527344 -4.554688 5.527344 -6.472656 L 1.144531 -6.472656 C 1.144531 -2.175781 4.324219 0.402344 8.9375 0.402344 Z M 8.9375 0.402344 "/></g></g></g><g fill="#58297a" fill-opacity="1"><g transform="translate(107.840185, 37.759803)"><g><path d="M 16.097656 -20.050781 L 0.601562 -20.050781 L 0.601562 -16.011719 L 6.1875 -16.011719 L 6.1875 0 L 10.511719 0 L 10.511719 -16.011719 L 16.097656 -16.011719 Z M 16.097656 -20.050781 "/></g></g></g><g fill="#58297a" fill-opacity="1"><g transform="translate(125.995278, 37.759803)"><g><path d="M 2.292969 0 L 6.617188 0 L 6.617188 -20.050781 L 2.292969 -20.050781 Z M 2.292969 0 "/></g></g></g><g fill="#58297a" fill-opacity="1"><g transform="translate(136.361896, 37.759803)"><g><path d="M 15.582031 0 L 20.308594 0 L 12.203125 -20.050781 L 8.105469 -20.050781 L 0.230469 0 L 4.839844 0 L 6.214844 -3.78125 L 14.179688 -3.78125 Z M 10.199219 -14.753906 L 12.832031 -7.5625 L 7.5625 -7.5625 Z M 10.199219 -14.753906 "/></g></g></g><g fill="#58297a" fill-opacity="1"><g transform="translate(158.35395, 37.759803)"><g><path d="M 14.980469 -20.050781 L 14.980469 -7.820312 L 6.1875 -20.050781 L 2.292969 -20.050781 L 2.292969 0 L 6.53125 0 L 6.53125 -12.519531 L 15.613281 0 L 19.25 0 L 19.25 -20.050781 Z M 14.980469 -20.050781 "/></g></g></g><g fill="#58297a" fill-opacity="1"><g transform="translate(181.319564, 37.759803)"><g/></g></g><g fill="#58297a" fill-opacity="1"><g transform="translate(189.595896, 37.759803)"><g><path d="M 26.839844 0 L 23.746094 -20.050781 L 19.394531 -20.050781 L 13.949219 -7.734375 L 8.507812 -20.050781 L 4.183594 -20.050781 L 1.03125 0 L 5.441406 0 L 7.417969 -13.0625 L 13.40625 -0.0273438 L 14.464844 -0.0273438 L 20.453125 -13.0625 L 22.429688 0 Z M 26.839844 0 "/></g></g></g><g fill="#58297a" fill-opacity="1"><g transform="translate(218.946906, 37.759803)"><g><path d="M 2.292969 0 L 6.617188 0 L 6.617188 -20.050781 L 2.292969 -20.050781 Z M 2.292969 0 "/></g></g></g><g fill="#58297a" fill-opacity="1"><g transform="translate(229.313524, 37.759803)"><g><path d="M 11.488281 0.457031 C 16.441406 0.457031 20.339844 -2.863281 21.253906 -7.820312 L 16.871094 -7.820312 C 16.15625 -5.300781 14.121094 -3.695312 11.488281 -3.695312 C 8.078125 -3.695312 5.527344 -6.386719 5.527344 -9.996094 C 5.527344 -13.605469 8.078125 -16.328125 11.488281 -16.328125 C 14.007812 -16.328125 16.011719 -14.839844 16.84375 -12.488281 L 21.167969 -12.488281 C 20.253906 -17.246094 16.355469 -20.480469 11.488281 -20.480469 C 5.585938 -20.480469 1.117188 -15.957031 1.117188 -9.996094 C 1.117188 -4.066406 5.585938 0.457031 11.488281 0.457031 Z M 11.488281 0.457031 "/></g></g></g><g fill="#58297a" fill-opacity="1"><g transform="translate(252.823176, 37.759803)"><g><path d="M 14.179688 -20.050781 L 14.179688 -12.316406 L 6.617188 -12.316406 L 6.617188 -20.050781 L 2.292969 -20.050781 L 2.292969 0 L 6.617188 0 L 6.617188 -8.277344 L 14.179688 -8.277344 L 14.179688 0 L 18.503906 0 L 18.503906 -20.050781 Z M 14.179688 -20.050781 "/></g></g></g><g fill="#58297a" fill-opacity="1"><g transform="translate(275.072944, 37.759803)"><g><path d="M 2.292969 0 L 6.617188 0 L 6.617188 -20.050781 L 2.292969 -20.050781 Z M 2.292969 0 "/></g></g></g><g fill="#58297a" fill-opacity="1"><g transform="translate(285.439561, 37.759803)"><g><path d="M 6.617188 -4.011719 L 6.617188 -8.136719 L 13.578125 -8.136719 L 13.578125 -12.058594 L 6.617188 -12.058594 L 6.617188 -16.042969 L 14.324219 -16.042969 L 14.324219 -20.050781 L 2.292969 -20.050781 L 2.292969 0 L 14.636719 0 L 14.636719 -4.011719 Z M 6.617188 -4.011719 "/></g></g></g><g fill="#58297a" fill-opacity="1"><g transform="translate(302.878793, 37.759803)"><g><path d="M 6.617188 -4.011719 L 6.617188 -20.050781 L 2.292969 -20.050781 L 2.292969 0 L 14.324219 0 L 14.324219 -4.011719 Z M 6.617188 -4.011719 "/></g></g></g><g fill="#58297a" fill-opacity="1"><g transform="translate(319.258576, 37.759803)"><g><path d="M 15.582031 0 L 20.308594 0 L 12.203125 -20.050781 L 8.105469 -20.050781 L 0.230469 0 L 4.839844 0 L 6.214844 -3.78125 L 14.179688 -3.78125 Z M 10.199219 -14.753906 L 12.832031 -7.5625 L 7.5625 -7.5625 Z M 10.199219 -14.753906 "/></g></g></g><g fill="#58297a" fill-opacity="1"><g transform="translate(341.250624, 37.759803)"><g><path d="M 14.980469 -20.050781 L 14.980469 -7.820312 L 6.1875 -20.050781 L 2.292969 -20.050781 L 2.292969 0 L 6.53125 0 L 6.53125 -12.519531 L 15.613281 0 L 19.25 0 L 19.25 -20.050781 Z M 14.980469 -20.050781 "/></g></g></g></svg>