<svg xmlns="http://www.w3.org/2000/svg" xmlns:xlink="http://www.w3.org/1999/xlink" width="500" zoomAndPan="magnify" viewBox="0 0 375 374.999991" height="500" preserveAspectRatio="xMidYMid meet" version="1.0"><defs><g/></defs><g fill="#ff914d" fill-opacity="1"><g transform="translate(55.107207, 250.338442)"><g><path d="M 65.859375 -100.234375 C 56.316406 -100.234375 48.925781 -96.644531 43.6875 -89.46875 C 38.457031 -82.289062 35.84375 -72.296875 35.84375 -59.484375 C 35.84375 -32.804688 45.847656 -19.46875 65.859375 -19.46875 C 74.265625 -19.46875 84.4375 -21.566406 96.375 -25.765625 L 96.375 -4.5 C 86.5625 -0.40625 75.597656 1.640625 63.484375 1.640625 C 46.085938 1.640625 32.78125 -3.632812 23.5625 -14.1875 C 14.34375 -24.75 9.734375 -39.898438 9.734375 -59.640625 C 9.734375 -72.078125 11.992188 -82.972656 16.515625 -92.328125 C 21.046875 -101.679688 27.550781 -108.851562 36.03125 -113.84375 C 44.519531 -118.832031 54.460938 -121.328125 65.859375 -121.328125 C 77.484375 -121.328125 89.15625 -118.519531 100.875 -112.90625 L 92.703125 -92.296875 C 88.222656 -94.421875 83.71875 -96.273438 79.1875 -97.859375 C 74.664062 -99.441406 70.222656 -100.234375 65.859375 -100.234375 Z M 65.859375 -100.234375 "/></g></g></g><g fill="#004aad" fill-opacity="1"><g transform="translate(161.834404, 250.338442)"><g><path d="M 65.703125 0 L 36.90625 -93.84375 L 36.15625 -93.84375 C 37.195312 -74.75 37.71875 -62.015625 37.71875 -55.640625 L 37.71875 0 L 15.046875 0 L 15.046875 -119.625 L 49.578125 -119.625 L 77.890625 -28.140625 L 78.375 -28.140625 L 108.40625 -119.625 L 142.9375 -119.625 L 142.9375 0 L 119.296875 0 L 119.296875 -56.625 C 119.296875 -59.289062 119.332031 -62.367188 119.40625 -65.859375 C 119.488281 -69.347656 119.859375 -78.625 120.515625 -93.6875 L 119.78125 -93.6875 L 88.9375 0 Z M 65.703125 0 "/></g></g></g></svg>